<?xml version="1.0" standalone="no"?><!DOCTYPE svg PUBLIC "-//W3C//DTD SVG 1.1//EN" "http://www.w3.org/Graphics/SVG/1.1/DTD/svg11.dtd"><svg t="1751010770049" class="icon" viewBox="0 0 2080 1024" version="1.1" xmlns="http://www.w3.org/2000/svg" p-id="2067" xmlns:xlink="http://www.w3.org/1999/xlink" width="260" height="128"><path d="M1359.90979 502.290108c0 3.149154-2.624295 5.77345-5.77345 5.773449h-57.209636c-3.149154 0-5.77345-2.624295-5.773449-5.773449V498.616094c0-3.149154 2.624295-5.77345 5.773449-5.773449H1354.13634c3.149154 0 5.77345 2.624295 5.77345 5.773449v3.674014zM1371.456689 453.478216c-1.049718-7.872886-4.723731-15.220912-10.497181-20.994362s-14.171194-9.447463-22.04408-9.972321c-9.447463-0.524859-16.27063 1.049718-23.618657 6.823167-2.624295 2.099436-6.298309 5.77345-8.397745 11.02204-0.524859 1.049718-0.524859 1.574577-0.524859 2.624295 0 4.198872 3.149154 7.348027 7.348027 7.348027 2.624295 0 5.24859-1.574577 6.298308-4.198872 1.049718-2.099436 4.723731-6.298309 6.823168-6.823168 0 0 0.524859 0 0.524859-0.524859 3.149154-1.574577 6.823168-2.099436 10.497181-1.574577 9.447463 0.524859 16.795489 7.348027 19.419785 16.27063v0.524859h0.524859c2.624295-0.524859 4.723731-1.049718 7.348026-0.524859 2.099436 0 4.198872 0 6.298309 1.049718h0.524859l-0.524859-1.049718z" p-id="2068" fill="#ffffff"></path><path d="M1364.108662 455.052793h-2.099436-2.099436c-7.348027 0.524859-10.497181 3.674013-10.497181 3.674014-1.574577 1.574577-2.624295 3.674013-2.624295 5.773449 0 4.198872 3.149154 7.348027 7.348026 7.348027 1.574577 0 3.149154-0.524859 4.198873-1.574577 2.624295-1.574577 5.24859-1.049718 5.24859-1.049718 2.624295 0 4.723731 0.524859 5.77345 1.049718 5.77345 2.099436 9.972322 7.348027 9.972322 13.646335 0 3.149154-1.049718 6.298309-3.149155 8.922604-0.524859 1.049718-1.574577 1.574577-2.624295 2.624295-0.524859 0-0.524859 0.524859-1.049718 0.524859-1.049718 0.524859-2.624295 1.049718-3.149154 1.574577h-0.524859c-4.198872 1.049718-6.298309 5.24859-5.248591 8.922604 1.049718 3.149154 3.674013 5.77345 7.348027 5.77345h2.099436c6.298309-1.574577 12.071758-5.24859 15.745771-10.497181 4.198872-5.24859 6.298309-11.546899 6.298309-17.845208-1.574577-15.220912-14.696053-28.867248-30.966684-28.867248zM1289.578678 498.091235c0-0.524859-0.524859-1.574577-1.049718-2.099436-1.049718-2.624295-3.674013-4.198872-6.298309-4.198872h-0.524859c-1.574577 0-3.674013 1.049718-4.723732 2.099436-3.149154 2.624295-6.823168 4.198872-11.022039 4.198872-8.922604 0-15.745771-7.348027-15.745772-15.745771s6.823168-15.220912 15.220912-15.745772h0.52486c0.524859 0 2.099436 0 3.149154 0.52486 0.524859 0 1.049718 0.524859 1.574577 0.524859h1.049718c1.574577 0 3.149154-0.524859 4.723731-1.574578 1.049718-1.049718 1.574577-2.099436 2.099437-3.149154 0-0.524859 0.524859-1.574577 0.524859-2.099436 0-2.624295-1.574577-5.24859-3.674014-6.298309-0.524859-0.524859-1.049718-0.524859-1.574577-1.049718-2.099436-0.524859-4.723731-1.049718-6.823167-1.049718-16.795489 0-30.441825 13.646335-30.441825 30.441825 0 16.795489 13.646335 30.441825 30.441825 30.441825 7.348027 0 14.171194-2.624295 19.419784-7.348027 2.624295-1.574577 4.198872-3.674013 4.198873-6.823168-1.049718-0.524859-1.049718-1.049718-1.049718-1.049718s-0.524859 0 0 0zM1304.79959 406.765761c-20.994362-4.723731-41.463865 8.922604-46.187596 29.916966-0.524859 3.149154-1.049718 6.298309-1.049718 9.447463v4.723731c0 0.524859 7.348027-3.149154 17.845207 0.524859 0 0-1.049718-2.099436-1.049718-4.198872v-3.149155c0-1.049718 0-2.624295 0.524859-3.674013 2.624295-12.071758 14.696053-19.419785 26.242953-16.795489 4.198872 1.049718 8.397745 3.674013 11.546899 6.823167 1.049718-1.049718 5.77345-6.823168 14.696053-7.872885-5.77345-8.922604-13.121476-14.171194-22.568939-15.745772zM1382.478729 428.284982c-4.723731 0-8.922604-3.674013-8.922604-8.922604 0-4.723731 4.198872-8.922604 8.922604-8.922604 4.723731 0 8.922604 4.198872 8.922604 8.922604 0 4.723731-4.198872 8.922604-8.922604 8.922604m0-16.27063c-4.198872 0-7.348027 3.149154-7.348027 7.348026 0 4.198872 3.149154 7.348027 7.348027 7.348027 4.198872 0 7.348027-3.149154 7.348027-7.348027 0-4.198872-3.149154-7.348027-7.348027-7.348026" p-id="2069" fill="#ffffff"></path><path d="M1386.677601 424.610969h-1.049718-0.524859l-2.624295-4.198873h-1.574577v4.723732h-0.524859v-10.497181s0-0.524859 0.524859-0.524859h2.624295c2.099436 0 3.674013 0.524859 3.674013 3.149154 0 1.574577-1.049718 2.624295-2.099436 2.624295l1.574577 4.723732c0-0.524859 0-0.524859 0 0 0-0.524859 0 0 0 0m-1.574577-7.872886c0-1.574577-1.049718-2.099436-2.624295-2.099436h-1.574577v3.674013h1.574577c1.574577 0.524859 2.624295 0 2.624295-1.574577z" p-id="2070" fill="#ffffff"></path><path d="M431.434136 468.17427l-28.342388-35.165557H425.135828l19.944644 26.242953 20.469502-26.242953h20.469503l-28.867247 35.165557 31.491542 38.31471h-22.568939l-22.04408-28.342389-22.044079 28.342389h-21.519221zM496.516658 433.008713h18.894926v74.005126h-18.894926zM525.383906 433.008713h18.894925v31.491543l34.640697-31.491543h23.093798l-38.839569 34.640698 40.939006 39.364428h-25.193235l-34.115838-34.640697h-0.524859v34.640697h-18.894925z" p-id="2071" fill="#ffffff"></path><path d="M637.703742 447.704767l-14.171195 30.441824h27.81753l-13.646335-30.441824z m-10.497181-14.696054h21.519221l37.264992 74.005126h-20.994362l-8.397745-16.795489h-38.839569l-8.397745 16.795489h-19.944644l37.789852-74.005126z" p-id="2072" fill="#ffffff"></path><path d="M681.267043 433.008713h23.618657l36.215274 55.1102V433.008713h18.370066v74.005126h-23.093798l-36.740133-55.635059v55.635059h-18.370066zM819.829831 443.505894c-11.02204 0-19.419785 2.624295-25.718093 7.872886-5.77345 5.24859-8.922604 11.546899-8.922604 18.894926 0 7.872886 3.149154 14.171194 8.397745 18.894925 5.77345 5.24859 13.646335 7.348027 23.618657 7.348027 5.24859 0 9.447463-0.524859 12.596617-1.049718v-19.419785h-20.469503v-11.546899h38.31471v39.889288c-9.972322 2.624295-20.469503 3.674013-30.966683 3.674013-15.745771 0-28.342389-3.149154-37.789852-9.447463-9.972322-5.77345-14.696053-15.220912-14.696053-27.817529 0.524859-26.242952 17.845208-39.364428 52.485905-39.364429 11.02204 0 19.944644 1.049718 27.817529 3.149155l-1.049718 12.596617c-6.823168-2.624295-15.220912-3.674013-23.618657-3.674014M1056.016402 477.096873c-4.198872-3.149154-7.872886-6.823168-11.02204-10.497181h8.922604l11.546899 0.52486c-2.099436 4.198872-5.24859 7.348027-9.447463 9.972321m-11.02204-24.143516h9.447463v5.77345h-9.447463v-5.77345z m0-8.397744v-5.248591h9.447463v5.248591h-9.447463z m-15.745772 26.767811c-2.099436 1.574577-3.674013 3.149154-5.773449 4.723731-3.674013-3.149154-6.823168-5.77345-9.972322-8.397744l-7.348027 5.773449c2.099436 2.624295 4.723731 6.298309 6.823168 9.447463-3.674013 2.099436-7.348027 4.198872-11.546899 5.773449 2.099436-5.77345 3.149154-13.121476 3.149154-22.04408v-40.414146h24.668375v4.723731h-20.994361v7.872886h20.994361v5.24859h-23.093798v7.872886h23.093798v5.77345h-22.568939v7.872885h22.568939v5.77345zM1065.463865 482.870323c5.24859-1.574577 9.972322-4.723731 13.646335-8.397745l-9.972322-8.397745v-13.646335h9.447463l1.049718-8.397745h-10.497181v-13.121476h-23.618657v-4.723731h30.441825l1.049718-7.872886h-33.590979l4.198872-4.198872c-4.198872-2.624295-9.972322-5.24859-16.795489-7.872886l-6.298309 6.298309c2.099436 1.574577 3.674013 3.674013 5.77345 5.773449h-40.414147v47.237314c0 13.121476-3.149154 29.916966-6.298309 40.939006 0 0 11.546899-2.099436 16.79549-15.220912l4.723731 11.02204c4.723731-2.099436 8.922604-4.723731 12.596617-7.348027 0 0 5.24859-3.674013 5.77345-4.198872 2.099436-2.099436 4.198872-3.674013 6.298309-5.77345v22.04408h15.745771v-24.668375c5.77345 7.872886 13.121476 14.696053 23.093798 22.04408l12.071758-14.171194c-5.77345-2.099436-11.02204-4.723731-15.220912-7.348027m-134.363916-4.723732l-7.348027 4.198873c4.198872 8.397745 7.348027 16.795489 8.922604 25.193234l14.171194-9.447463c-0.524859-1.574577-2.624295-4.198872-5.24859-7.872885-2.624295-4.723731-6.298309-8.397745-10.497181-12.071759m-25.193234-41.988723h11.022039v12.596617h-11.022039v-12.596617z m-2.099437-8.397745h-8.922603v28.342389h8.922603V467.124552H892.260379v-47.237315h12.071758v7.872886z m43.038442-7.872886h7.348027v19.944644h-7.348027V419.887237z m6.298309 56.159918c4.198872 3.149154 10.497181 9.447463 18.894925 18.894926l-14.696053 11.546899c-3.674013-10.497181-7.872886-19.419785-12.071758-25.718093l6.298309-4.723732h-7.872886c-4.723731-0.524859-7.872886-2.099436-8.922604-4.723731l-1.049718 3.674013h-53.535623V412.539211h49.86161l-1.574577 7.348026h-12.596618v7.872886h12.071758v28.342389h-12.071758V467.124552h17.320349v-2.099437l0.524859-53.010763h33.590979v35.165556h-19.944644v12.596617c0 1.574577 1.574577 2.624295 4.723732 2.624295 3.149154 0 4.723731-0.524859 5.773449-1.574577l2.624295-11.02204 5.248591 1.574577c-0.524859 3.149154-0.524859 5.24859-0.524859 6.298309 0 4.198872 1.574577 7.348027 4.198872 8.922603-1.049718 6.298309-4.198872 8.922604-9.447463 8.922604h-6.823167z m-50.386469 5.77345c2.624295 9.972322 4.198872 18.370067 4.198873 25.193234l15.745771-6.298309c-1.574577-6.298309-5.24859-13.646335-10.497181-22.044079l-9.447463 3.149154z m-27.817529 14.696053l13.121476 11.02204c5.24859-5.77345 8.922604-14.696053 11.02204-25.718093l-9.447463-3.674014c-3.674013 6.823168-8.397745 13.121476-14.696053 18.370067" p-id="2073" fill="#ffffff"></path><path d="M1148.916453 410.439774v99.19836" p-id="2074" fill="#ffffff"></path><path d="M1679.548949 430.909277c-4.723731-7.348027-7.348027-13.121476-11.02204-17.845207l12.071758 3.149154c4.198872 5.24859 3.674013 6.298309 8.397745 12.596617l-9.447463 2.099436z" p-id="2075" fill="#ffffff"></path><path d="M1661.178883 433.533573h38.31471V440.881599h9.447463v-15.745771h-57.209636v15.745771h9.447463v-7.348026z m-5.77345 19.419784h49.33675v-8.922604h-49.33675v8.922604z m47.762173 29.392107s-0.524859 8.922604-1.049718 12.596617c0 1.049718-0.524859 2.624295-2.624295 2.624295 0 0-4.723731 0-5.24859-0.524859-1.049718-0.524859-1.049718-2.624295-1.049719-4.198872v-20.994362h15.745772v-8.397745h-56.684777v5.248591c-1.049718-5.24859-4.198872-12.071758-7.872886-16.79549 3.149154-10.497181 5.77345-20.994362 7.348027-27.29267v-7.872886h-30.441825v91.325474h8.922604v-15.745771h0.524859c2.099436 0 6.298309 0 8.397745-0.524859 4.198872 0 7.348027-1.049718 9.447463-3.149155 2.624295-2.624295 4.198872-5.77345 3.674013-11.546899V472.373142h12.071758c-1.049718 7.348027-2.624295 19.419785-16.270631 32.016402l-1.574577 1.049718h14.696054c8.397745-8.397745 11.546899-21.519221 13.646335-33.06612h7.872886v24.143516c0 3.674013 0.524859 6.298309 2.624295 8.397745 1.574577 2.099436 4.723731 1.574577 8.397745 1.574577h3.149154c9.972322 0 13.646335-2.624295 14.171194-7.872886 0-0.524859 1.574577-13.121476 1.574577-13.121476l-9.447463-3.149154z m-65.082521-0.524859c-2.099436 0-6.298309 0-8.397745-0.524859V425.135828h11.02204l-6.823168 27.29267v0.524859l0.524859 0.524859c5.77345 7.348027 8.397745 14.696053 8.397745 22.04408 0 5.24859-2.624295 6.298309-4.723731 6.298309M1599.245515 495.991799l4.198872-8.397745c-11.02204-6.823168-21.519221-13.121476-28.867247-17.845207v-0.524859h28.342388v-8.922604h-26.767811c0.524859-4.198872 0.524859-9.447463 0.524859-13.646335h23.618657v-8.922604h-42.513583l4.198873-8.397745-5.77345-1.574577h51.961046v-8.922604h-85.552025v86.601743h86.601743v-8.922604h-9.972322z m-39.889287 0H1532.588416v-68.231676h19.419785c-3.674013 9.447463-14.171194 25.193234-14.171194 25.193234h11.546899c1.574577-2.624295 3.149154-4.198872 4.198872-6.298308h14.171194c0 5.77345 0 11.546899-0.524859 13.646335h-27.817529v8.922604h25.193234c-3.674013 7.348027-15.220912 19.944644-23.618657 25.718093h13.646335c5.77345-4.198872 13.121476-13.646335 16.270631-18.370067 10.497181 6.823168 19.419785 15.220912 26.767811 19.944644h-38.31471zM1427.091748 418.837519h73.480266v9.972322h-73.480266zM1417.644285 460.826243h33.06612c-6.298309 9.972322-12.071758 20.469503-17.320349 27.29267-2.624295 3.149154-5.77345 5.24859-8.922603 6.823168l-1.049719 0.524859V503.864685l70.855972-3.149155s2.624295 3.149154 4.723731 5.77345c1.049718 1.049718 1.574577 2.099436 2.099436 2.624295l0.524859 0.524859 5.77345-10.497181c-5.24859-6.298309-14.171194-18.370067-25.718093-32.016401l-0.524859-1.049719-3.674014 11.546899c2.099436 2.624295 5.24859 7.348027 8.397745 11.02204 0.524859 1.049718 1.049718 1.574577 1.574577 2.624296-7.348027 0-42.513583 1.574577-45.137878 1.574577 6.298309-7.348027 12.596617-19.944644 21.519221-32.541261h45.662737V451.37878h-91.850333v9.447463z" p-id="2076" fill="#ffffff"></path><path d="M337.484367 410.439774v99.19836" p-id="2077" fill="#ffffff"></path></svg>